<?xml version="1.0" encoding="UTF-8" standalone="no"?>
<!-- Created with Inkscape (http://www.inkscape.org/) -->

<svg
   xmlns:dc="http://purl.org/dc/elements/1.1/"
   xmlns:cc="http://creativecommons.org/ns#"
   xmlns:rdf="http://www.w3.org/1999/02/22-rdf-syntax-ns#"
   xmlns:svg="http://www.w3.org/2000/svg"
   xmlns="http://www.w3.org/2000/svg"
   xmlns:sodipodi="http://sodipodi.sourceforge.net/DTD/sodipodi-0.dtd"
   xmlns:inkscape="http://www.inkscape.org/namespaces/inkscape"
   width="264.58334mm"
   height="264.58334mm"
   viewBox="0 0 264.58334 264.58334"
   version="1.1"
   id="svg8"
   sodipodi:docname="partner_zooliy_blockchain.svg"
   inkscape:version="0.92.3 (2405546, 2018-03-11)">
  <defs
     id="defs2" />
  <sodipodi:namedview
     id="base"
     pagecolor="#ffffff"
     bordercolor="#666666"
     borderopacity="1.0"
     inkscape:pageopacity="0.0"
     inkscape:pageshadow="2"
     inkscape:zoom="0.35"
     inkscape:cx="467.72126"
     inkscape:cy="676.43118"
     inkscape:document-units="mm"
     inkscape:current-layer="layer1"
     showgrid="false"
     fit-margin-top="0"
     fit-margin-left="0"
     fit-margin-right="0"
     fit-margin-bottom="0"
     inkscape:window-width="1366"
     inkscape:window-height="705"
     inkscape:window-x="-8"
     inkscape:window-y="-8"
     inkscape:window-maximized="1"
     showguides="false" />
  <metadata
     id="metadata5">
    <rdf:RDF>
      <cc:Work
         rdf:about="">
        <dc:format>image/svg+xml</dc:format>
        <dc:type
           rdf:resource="http://purl.org/dc/dcmitype/StillImage" />
        <dc:title></dc:title>
      </cc:Work>
    </rdf:RDF>
  </metadata>
  <g
     inkscape:label="Layer 1"
     inkscape:groupmode="layer"
     id="layer1"
     transform="translate(82.142866,-4.9464285)">
    <circle
       style="opacity:1;fill:#ffffff;fill-opacity:1;stroke:#005544;stroke-width:2.44588804;stroke-linecap:round;stroke-linejoin:round;stroke-miterlimit:4;stroke-dasharray:none;stroke-dashoffset:0;stroke-opacity:1"
       id="path830"
       cx="50.148804"
       cy="137.2381"
       r="131.06873" />
    <path
       style="fill:#37c871;fill-opacity:1;stroke:none;stroke-width:0.2181288px;stroke-linecap:butt;stroke-linejoin:miter;stroke-opacity:1"
       d="m -373.48064,41.574607 h 195.69272 v -125.89149 c -16.70308,-3.631106 -31.70852,62.70057 -44.24899,65.12703 -12.54047,2.42646 -14.14121,-27.226451 -31.16126,-24.929004 -17.02005,2.297447 -27.44665,49.5667837 -37.0819,51.1044637 -9.63525,1.53767 -12.39923,-22.0816397 -27.11029,-21.8128797 -14.71107,0.26876 -35.28259,52.61867 -56.09028,56.40188 z"
       id="path828"
       inkscape:connector-curvature="0"
       sodipodi:nodetypes="ccczzzzc" />
    <path
       style="opacity:1;fill:#005544;fill-opacity:1;stroke:none;stroke-width:0.21883482px;stroke-linecap:butt;stroke-linejoin:miter;stroke-opacity:1"
       d="m -344.1891,59.959457 193.19945,-0.31161 v -73.53999 c -13.12281,-4.34603 -37.26396,37.84951 -46.41805,38.63965 -9.1541,0.79015 -14.25522,-13.25574 -28.2272,-13.39923 -13.97199,-0.14349 -24.43687,25.95999 -37.32261,27.42169 -12.88576,1.4617 -11.87823,-10.14175 -27.59993,-11.21796 -15.7217,-1.07622 -30.7848,24.42642 -53.63166,32.40745 z"
       id="path826"
       inkscape:connector-curvature="0"
       sodipodi:nodetypes="ccczzzzc" />
    <path
       style="opacity:0.96799999;fill:#37c871;fill-opacity:1;stroke:none;stroke-width:0.03263218;stroke-linecap:round;stroke-linejoin:miter;stroke-miterlimit:4;stroke-dasharray:none;stroke-opacity:1"
       d="m 69.559606,192.21959 c 3.239479,4.45969 -3.462952,11.9586 -10.348839,6.25146 L 42.89317,181.29118 c -4.329024,-3.33606 -8.406246,0.61733 -5.493748,3.88617 l 10.628353,10.82702 c 7.701423,9.64138 -6.779609,8.64983 -9.008075,7.63593 -9.902773,-5.32 -39.18176062,-34.31566 -58.900526,-56.24161 -2.420638,-5.18702 -1.364555,-5.73839 -1.954851,-8.48495 l 31.00574,-29.16155 33.853914,-0.0983 54.944819,53.38089 c 7.311524,8.42299 -2.224491,16.29743 -8.841449,9.25362 l -16.16104,-14.74572 c -3.799476,-3.89432 -9.426293,0.13446 -5.397669,4.33619 l 20.048231,19.08743 c 7.271197,7.59293 -1.016505,16.95354 -10.166059,9.29193 L 57.206945,169.69924 c -3.378846,-3.07126 -8.037066,0.12306 -5.362317,4.07453 z"
       id="path936"
       inkscape:connector-curvature="0"
       sodipodi:nodetypes="ccccccccccccccccccc" />
    <path
       style="opacity:1;fill:#005544;fill-opacity:1;stroke:none;stroke-width:0.01457832;stroke-linecap:round;stroke-linejoin:miter;stroke-miterlimit:4;stroke-dasharray:none;stroke-opacity:1"
       inkscape:transform-center-x="0.027651183"
       inkscape:transform-center-y="-0.28387042"
       d="m 95.621197,161.3646 -40.74649,-39.14227 c -4.016711,-2.5286 -7.404911,-0.65775 -10.856485,0.76954 L 31.299179,133.16184 C 25.164627,137.05482 11.126891,130.58033 20.110254,116.8892 L 41.229,101.08206 c 10.176233,-6.03769 18.040964,-4.678594 25.311444,-1.41787 l 14.71194,9.31264 c 3.172574,2.15394 5.72022,2.9506 9.815612,1.44577 l 8.004945,-6.78947 27.055169,31.22126 c -7.97841,10.47967 -17.84445,19.54358 -30.506913,26.51021 z"
       id="path931"
       inkscape:connector-curvature="0"
       sodipodi:nodetypes="cccccccccccc" />
    <path
       transform="matrix(-0.40917779,-0.41857929,-0.17251462,0.14017875,113.05304,135.99914)"
       d="m 72.536142,-13.470064 c -11.006667,10.3716667 -97.605223,7.7994326 -107.97689,-3.207234 -10.371667,-11.006667 -7.799433,-97.605222 3.207234,-107.976892 11.006666,-10.37167 97.605223,-7.79943 107.97689,3.20724 10.371667,11.00666 7.799433,97.605219 -3.207234,107.976886 z"
       inkscape:randomized="0"
       inkscape:rounded="0.14"
       inkscape:flatsided="true"
       sodipodi:arg2="1.6004906"
       sodipodi:arg1="0.8150924"
       sodipodi:r2="54.012257"
       sodipodi:r1="76.384865"
       sodipodi:cy="-69.062126"
       sodipodi:cx="20.151314"
       sodipodi:sides="4"
       id="path924"
       style="opacity:1;fill:#37c871;fill-opacity:1;stroke:none;stroke-width:0.07937501;stroke-linecap:round;stroke-linejoin:miter;stroke-miterlimit:4;stroke-dasharray:none;stroke-opacity:1"
       sodipodi:type="star" />
    <path
       sodipodi:type="star"
       style="opacity:1;fill:#005544;fill-opacity:1;stroke:none;stroke-width:0.07937501;stroke-linecap:round;stroke-linejoin:miter;stroke-miterlimit:4;stroke-dasharray:none;stroke-opacity:1"
       id="path934"
       sodipodi:sides="4"
       sodipodi:cx="20.151314"
       sodipodi:cy="-69.062126"
       sodipodi:r1="76.384865"
       sodipodi:r2="54.012257"
       sodipodi:arg1="0.8150924"
       sodipodi:arg2="1.6004906"
       inkscape:flatsided="true"
       inkscape:rounded="0.14"
       inkscape:randomized="0"
       d="m 72.536142,-13.470064 c -11.006667,10.3716667 -97.605223,7.7994326 -107.97689,-3.207234 -10.371667,-11.006667 -7.799433,-97.605222 3.207234,-107.976892 11.006666,-10.37167 97.605223,-7.79943 107.97689,3.20724 10.371667,11.00666 7.799433,97.605219 -3.207234,107.976886 z"
       transform="matrix(0.40917779,-0.41857929,0.17251462,0.14017875,-11.243536,136.87816)" />
  </g>
</svg>
