<?xml version="1.0" encoding="UTF-8" standalone="no"?>
<!-- Created with Inkscape (http://www.inkscape.org/) -->

<svg
   xmlns:dc="http://purl.org/dc/elements/1.1/"
   xmlns:cc="http://creativecommons.org/ns#"
   xmlns:rdf="http://www.w3.org/1999/02/22-rdf-syntax-ns#"
   xmlns:svg="http://www.w3.org/2000/svg"
   xmlns="http://www.w3.org/2000/svg"
   xmlns:sodipodi="http://sodipodi.sourceforge.net/DTD/sodipodi-0.dtd"
   xmlns:inkscape="http://www.inkscape.org/namespaces/inkscape"
   width="1800"
   height="1200"
   viewBox="0 0 476.25 317.49998"
   version="1.1"
   id="svg8"
   sodipodi:docname="product_page_1_zooliy_blockchain.svg"
   inkscape:version="0.92.3 (2405546, 2018-03-11)">
  <defs
     id="defs2">
    <clipPath
       clipPathUnits="userSpaceOnUse"
       id="clipPath2031">
      <rect
         style="opacity:1;fill:#005544;fill-opacity:1;stroke:none;stroke-width:0.26499999;stroke-linecap:round;stroke-linejoin:round;stroke-miterlimit:4;stroke-dasharray:none;stroke-dashoffset:0;stroke-opacity:1"
         id="rect2033"
         width="80.246208"
         height="81.578873"
         x="15.374994"
         y="79.785728" />
    </clipPath>
  </defs>
  <sodipodi:namedview
     id="base"
     pagecolor="#ffffff"
     bordercolor="#666666"
     borderopacity="1.0"
     inkscape:pageopacity="0.0"
     inkscape:pageshadow="2"
     inkscape:zoom="0.24748737"
     inkscape:cx="872.80416"
     inkscape:cy="176.55486"
     inkscape:document-units="px"
     inkscape:current-layer="layer1"
     showgrid="false"
     fit-margin-top="0"
     fit-margin-left="0"
     fit-margin-right="0"
     fit-margin-bottom="0"
     inkscape:window-width="1366"
     inkscape:window-height="705"
     inkscape:window-x="-8"
     inkscape:window-y="-8"
     inkscape:window-maximized="1"
     showguides="false"
     inkscape:snap-global="false"
     units="px" />
  <metadata
     id="metadata5">
    <rdf:RDF>
      <cc:Work
         rdf:about="">
        <dc:format>image/svg+xml</dc:format>
        <dc:type
           rdf:resource="http://purl.org/dc/dcmitype/StillImage" />
        <dc:title></dc:title>
      </cc:Work>
    </rdf:RDF>
  </metadata>
  <g
     inkscape:label="Layer 1"
     inkscape:groupmode="layer"
     id="layer1"
     transform="translate(92.980957,116.09433)">
    <rect
       style="opacity:1;fill:#ffffff;fill-opacity:1;stroke:none;stroke-width:11.27105999;stroke-linecap:round;stroke-linejoin:round;stroke-miterlimit:4;stroke-dasharray:none;stroke-dashoffset:0;stroke-opacity:1"
       id="rect2232"
       width="476.25"
       height="317.5"
       x="-383.26904"
       y="-116.09433"
       transform="scale(-1,1)" />
    <path
       style="fill:#37c871;fill-opacity:1;stroke:none;stroke-width:0.2181288px;stroke-linecap:butt;stroke-linejoin:miter;stroke-opacity:1"
       d="m -373.48064,41.574607 h 195.69272 v -125.89149 c -16.70308,-3.631106 -31.70852,62.70057 -44.24899,65.12703 -12.54047,2.42646 -14.14121,-27.226451 -31.16126,-24.929004 -17.02005,2.297447 -27.44665,49.5667837 -37.0819,51.1044637 -9.63525,1.53767 -12.39923,-22.0816397 -27.11029,-21.8128797 -14.71107,0.26876 -35.28259,52.61867 -56.09028,56.40188 z"
       id="path828"
       inkscape:connector-curvature="0"
       sodipodi:nodetypes="ccczzzzc" />
    <path
       style="opacity:1;fill:#005544;fill-opacity:1;stroke:none;stroke-width:0.21883482px;stroke-linecap:butt;stroke-linejoin:miter;stroke-opacity:1"
       d="m -344.1891,59.959457 193.19945,-0.31161 v -73.53999 c -13.12281,-4.34603 -37.26396,37.84951 -46.41805,38.63965 -9.1541,0.79015 -14.25522,-13.25574 -28.2272,-13.39923 -13.97199,-0.14349 -24.43687,25.95999 -37.32261,27.42169 -12.88576,1.4617 -11.87823,-10.14175 -27.59993,-11.21796 -15.7217,-1.07622 -30.7848,24.42642 -53.63166,32.40745 z"
       id="path826"
       inkscape:connector-curvature="0"
       sodipodi:nodetypes="ccczzzzc" />
    <path
       style="fill:#ffffff;fill-opacity:1;stroke:#000000;stroke-width:10.13247967;stroke-linecap:butt;stroke-linejoin:round;stroke-miterlimit:4;stroke-dasharray:none;stroke-opacity:1"
       d="m 261.56532,28.769273 -140.4129,0.578997 -39.082428,88.58682 -7.816482,6.94799 c -8.906826,10.2037 4.017863,23.95657 13.31697,14.76446 l 23.44946,-22.58093 -29.239443,28.66044 c -12.555997,13.31088 3.212775,26.61928 14.764467,14.18546 l 29.818456,-28.66044 -27.212947,26.05496 c -9.513582,10.92448 7.061527,20.80337 14.474967,14.18546 l 27.50244,-26.63396 -23.15995,22.58096 c -9.55542,10.269 5.59406,19.15896 12.73797,13.02749 l 87.42883,-76.42785 h 43.43059 z"
       id="path5462"
       inkscape:connector-curvature="0"
       sodipodi:nodetypes="ccccccccccccccccc" />
    <path
       style="fill:#ffffff;fill-opacity:1;stroke:#000000;stroke-width:10.13247967;stroke-linecap:butt;stroke-linejoin:round;stroke-miterlimit:4;stroke-dasharray:none;stroke-opacity:1"
       d="M 36.635809,29.058773 H 179.9208 c 10.27971,-0.129716 8.89444,23.094413 0,23.159951 H 142.28588 L 82.069992,117.93509 65.279028,101.43362 H 36.537323 Z"
       id="path5460"
       inkscape:connector-curvature="0"
       sodipodi:nodetypes="cccccccc" />
    <rect
       y="26.606939"
       x="-188.15788"
       height="99.897034"
       width="212.89528"
       id="rect6099"
       style="opacity:1;fill:#37c871;fill-opacity:1;stroke:none;stroke-width:10.13247967;stroke-linecap:round;stroke-linejoin:round;stroke-miterlimit:4;stroke-dasharray:none;stroke-dashoffset:0;stroke-opacity:1" />
    <rect
       style="opacity:1;fill:none;fill-opacity:1;stroke:#000000;stroke-width:10.13247967;stroke-linecap:round;stroke-linejoin:round;stroke-miterlimit:4;stroke-dasharray:none;stroke-dashoffset:0;stroke-opacity:1"
       id="rect5464"
       width="212.89528"
       height="99.897034"
       x="-176.69429"
       y="18.418653" />
    <rect
       style="opacity:1;fill:#37c871;fill-opacity:1;stroke:none;stroke-width:10.13247967;stroke-linecap:round;stroke-linejoin:round;stroke-miterlimit:4;stroke-dasharray:none;stroke-dashoffset:0;stroke-opacity:1"
       id="rect6101"
       width="212.89528"
       height="99.897034"
       x="270.38583"
       y="26.606939" />
    <rect
       y="18.418653"
       x="262.28555"
       height="99.897034"
       width="212.89528"
       id="rect5468"
       style="opacity:1;fill:none;fill-opacity:1;stroke:#000000;stroke-width:10.13247967;stroke-linecap:round;stroke-linejoin:round;stroke-miterlimit:4;stroke-dasharray:none;stroke-dashoffset:0;stroke-opacity:1" />
    <circle
       cy="-64.558136"
       cx="100.69949"
       id="circle6075"
       style="opacity:1;fill:#005544;fill-opacity:1;stroke:none;stroke-width:2.02649593;stroke-linecap:round;stroke-linejoin:round;stroke-miterlimit:4;stroke-dasharray:none;stroke-dashoffset:0;stroke-opacity:1"
       r="10.318444" />
    <circle
       style="opacity:1;fill:none;fill-opacity:1;stroke:#000000;stroke-width:2.02649593;stroke-linecap:round;stroke-linejoin:round;stroke-miterlimit:4;stroke-dasharray:none;stroke-dashoffset:0;stroke-opacity:1"
       id="path858"
       cx="103.30501"
       cy="-64.558136"
       r="10.318444" />
    <path
       sodipodi:nodetypes="ccccccccccccccccc"
       inkscape:connector-curvature="0"
       id="path6077"
       d="m 61.297613,-29.456569 4.031571,-17.806 c 0.385235,-1.632782 1.322136,-2.300151 2.418923,-2.687697 6.990624,-1.723302 14.178195,-3.348125 22.173511,-4.569084 5.220329,-0.716671 8.64563,4.624923 7.928706,8.331862 l -5.778544,22.845427 10.34763,18.2763526 c 0.44795,1.030278 0.44795,2.060572 0,3.090853 -3.125056,7.78331 -6.59691,15.6822534 -10.482016,23.7189294 -1.708637,3.244491 -10.645945,0.143564 -8.667826,-4.77067 L 88.846531,-1.8404764 75.340861,-18.10105 c -1.270017,-1.814196 -2.37087,-5.106632 -1.411053,-8.735014 l 4.16594,-14.244799 -3.628396,0.671924 -5.644167,13.304106 c -1.391107,2.824533 -8.341036,0.793067 -7.525572,-2.351736 z"
       style="fill:#005544;fill-opacity:1;stroke:none;stroke-width:2.02649593;stroke-linecap:butt;stroke-linejoin:miter;stroke-miterlimit:4;stroke-dasharray:none;stroke-opacity:1" />
    <path
       style="fill:none;fill-opacity:1;stroke:#000000;stroke-width:2.02649593;stroke-linecap:butt;stroke-linejoin:miter;stroke-miterlimit:4;stroke-dasharray:none;stroke-opacity:1"
       d="m 63.903109,-29.456569 4.03157,-17.806 c 0.385236,-1.632782 1.322137,-2.300151 2.418923,-2.687697 6.990624,-1.723302 14.178196,-3.348125 22.173517,-4.569084 5.220326,-0.716671 8.645631,4.624923 7.928691,8.331862 l -5.778543,22.845427 10.347633,18.2763526 c 0.44795,1.030278 0.44795,2.060572 0,3.090853 -3.12506,7.78331 -6.596903,15.6822534 -10.482015,23.7189294 -1.708628,3.244491 -10.645941,0.143564 -8.667821,-4.77067 L 91.452032,-1.8404764 77.946356,-18.10105 c -1.270019,-1.814196 -2.370869,-5.106632 -1.411053,-8.735014 l 4.165941,-14.244799 -3.628397,0.671924 -5.644167,13.304106 c -1.391108,2.824533 -8.341035,0.793067 -7.525571,-2.351736 z"
       id="path860"
       inkscape:connector-curvature="0"
       sodipodi:nodetypes="ccccccccccccccccc" />
    <path
       sodipodi:nodetypes="ccccc"
       inkscape:connector-curvature="0"
       id="path6079"
       d="M 72.950263,-16.876571 82.768477,-4.8765254 69.532062,16.069028 c -3.689437,3.705506 -10.135391,-1.469561 -9.236414,-4.363655 z"
       style="fill:#005544;fill-opacity:1;stroke:none;stroke-width:2.02649593;stroke-linecap:butt;stroke-linejoin:miter;stroke-miterlimit:4;stroke-dasharray:none;stroke-opacity:1" />
    <path
       style="fill:none;fill-opacity:1;stroke:#000000;stroke-width:2.02649593;stroke-linecap:butt;stroke-linejoin:miter;stroke-miterlimit:4;stroke-dasharray:none;stroke-opacity:1"
       d="M 75.555757,-16.876571 85.373972,-4.8765254 72.137557,16.069028 c -3.689438,3.705506 -10.135392,-1.469561 -9.236414,-4.363655 z"
       id="path864"
       inkscape:connector-curvature="0"
       sodipodi:nodetypes="ccccc" />
    <path
       sodipodi:nodetypes="ccccccc"
       inkscape:connector-curvature="0"
       id="path6081"
       d="m 96.557956,-30.563104 3.561194,-13.908833 4.83785,7.055204 14.58077,7.995905 c 2.63712,0.78157 2.4652,8.130989 -2.95647,7.055203 l -15.31988,-5.039433 c -1.00165,-0.385995 -2.931819,-1.015183 -4.703464,-3.158046 z"
       style="fill:#005544;fill-opacity:1;stroke:none;stroke-width:2.02649593;stroke-linecap:butt;stroke-linejoin:miter;stroke-miterlimit:4;stroke-dasharray:none;stroke-opacity:1" />
    <path
       style="fill:none;fill-opacity:1;stroke:#000000;stroke-width:2.02649593;stroke-linecap:butt;stroke-linejoin:miter;stroke-miterlimit:4;stroke-dasharray:none;stroke-opacity:1"
       d="m 99.163454,-30.563104 3.561206,-13.908833 4.83785,7.055204 14.58075,7.995905 c 2.63712,0.78157 2.4652,8.130989 -2.95647,7.055203 l -15.31988,-5.039433 c -1.00166,-0.385995 -2.93181,-1.015183 -4.703456,-3.158046 z"
       id="path866"
       inkscape:connector-curvature="0"
       sodipodi:nodetypes="ccccccc" />
    <ellipse
       style="opacity:1;fill:#005544;fill-opacity:1;stroke:none;stroke-width:2.02649593;stroke-linecap:round;stroke-linejoin:round;stroke-miterlimit:4;stroke-dasharray:none;stroke-dashoffset:0;stroke-opacity:1"
       id="circle6083"
       cx="-201.45604"
       cy="-64.558136"
       transform="scale(-1,1)"
       rx="10.318445"
       ry="10.318444" />
    <ellipse
       cy="-64.558136"
       cx="-198.85066"
       id="circle6085"
       style="opacity:1;fill:none;fill-opacity:1;stroke:#000000;stroke-width:2.02649593;stroke-linecap:round;stroke-linejoin:round;stroke-miterlimit:4;stroke-dasharray:none;stroke-dashoffset:0;stroke-opacity:1"
       transform="scale(-1,1)"
       rx="10.318445"
       ry="10.318444" />
    <path
       style="fill:#005544;fill-opacity:1;stroke:none;stroke-width:2.02649593;stroke-linecap:butt;stroke-linejoin:miter;stroke-miterlimit:4;stroke-dasharray:none;stroke-opacity:1"
       d="m 240.85895,-29.456569 -4.03156,-17.806 c -0.38523,-1.632782 -1.32218,-2.300151 -2.41887,-2.687697 -6.99064,-1.723302 -14.17825,-3.348125 -22.17347,-4.569084 -5.22037,-0.716671 -8.64574,4.624923 -7.92873,8.331862 l 5.77861,22.845427 -10.34771,18.2763526 c -0.4479,1.030278 -0.4479,2.060572 0,3.090853 3.12511,7.78331 6.59692,15.6822534 10.48207,23.7189294 1.70859,3.244491 10.64602,0.143564 8.66782,-4.77067 L 213.31012,-1.8404764 226.81584,-18.10105 c 1.27007,-1.814196 2.37088,-5.106632 1.41106,-8.735014 l -4.16599,-14.244799 3.62845,0.671924 5.64421,13.304106 c 1.39103,2.824533 8.34096,0.793067 7.52538,-2.351736 z"
       id="path6087"
       inkscape:connector-curvature="0"
       sodipodi:nodetypes="ccccccccccccccccc" />
    <path
       sodipodi:nodetypes="ccccccccccccccccc"
       inkscape:connector-curvature="0"
       id="path6089"
       d="m 238.25347,-29.456569 -4.03156,-17.806 c -0.38523,-1.632782 -1.32218,-2.300151 -2.41895,-2.687697 -6.9906,-1.723302 -14.17824,-3.348125 -22.17345,-4.569084 -5.22039,-0.716671 -8.64568,4.624923 -7.92866,8.331862 l 5.77847,22.845427 -10.34764,18.2763526 c -0.4479,1.030278 -0.4479,2.060572 0,3.090853 3.12507,7.78331 6.59706,15.6822534 10.48208,23.7189294 1.70871,3.244491 10.64601,0.143564 8.66782,-4.77067 L 210.70459,-1.8404764 224.21031,-18.10105 c 1.27,-1.814196 2.37087,-5.106632 1.41106,-8.735014 l -4.16594,-14.244799 3.62829,0.671924 5.64421,13.304106 c 1.3911,2.824533 8.34103,0.793067 7.52554,-2.351736 z"
       style="fill:none;fill-opacity:1;stroke:#000000;stroke-width:2.02649593;stroke-linecap:butt;stroke-linejoin:miter;stroke-miterlimit:4;stroke-dasharray:none;stroke-opacity:1" />
    <path
       style="fill:#005544;fill-opacity:1;stroke:none;stroke-width:2.02649593;stroke-linecap:butt;stroke-linejoin:miter;stroke-miterlimit:4;stroke-dasharray:none;stroke-opacity:1"
       d="m 229.20633,-16.876571 -9.81822,12.0000456 13.23639,20.9455534 c 3.68949,3.705506 10.13534,-1.469561 9.23637,-4.363655 z"
       id="path6091"
       inkscape:connector-curvature="0"
       sodipodi:nodetypes="ccccc" />
    <path
       sodipodi:nodetypes="ccccc"
       inkscape:connector-curvature="0"
       id="path6093"
       d="m 226.60077,-16.876571 -9.8182,12.0000456 13.23636,20.9455534 c 3.68947,3.705506 10.13536,-1.469561 9.23641,-4.363655 z"
       style="fill:none;fill-opacity:1;stroke:#000000;stroke-width:2.02649593;stroke-linecap:butt;stroke-linejoin:miter;stroke-miterlimit:4;stroke-dasharray:none;stroke-opacity:1" />
    <path
       style="fill:#005544;fill-opacity:1;stroke:none;stroke-width:2.02649593;stroke-linecap:butt;stroke-linejoin:miter;stroke-miterlimit:4;stroke-dasharray:none;stroke-opacity:1"
       d="m 205.59864,-30.563104 -3.56123,-13.908833 -4.83788,7.055204 -14.58079,7.995905 c -2.63703,0.78157 -2.46517,8.130989 2.9565,7.055203 l 15.31988,-5.039433 c 1.0016,-0.385995 2.93178,-1.015183 4.70352,-3.158046 z"
       id="path6095"
       inkscape:connector-curvature="0"
       sodipodi:nodetypes="ccccccc" />
    <path
       sodipodi:nodetypes="ccccccc"
       inkscape:connector-curvature="0"
       id="path6097"
       d="m 202.9931,-30.563104 -3.56123,-13.908833 -4.83782,7.055204 -14.58072,7.995905 c -2.63709,0.78157 -2.46517,8.130989 2.95646,7.055203 l 15.31985,-5.039433 c 1.00162,-0.385995 2.93178,-1.015183 4.70346,-3.158046 z"
       style="fill:none;fill-opacity:1;stroke:#000000;stroke-width:2.02649593;stroke-linecap:butt;stroke-linejoin:miter;stroke-miterlimit:4;stroke-dasharray:none;stroke-opacity:1" />
  </g>
</svg>
